<?xml version="1.0" encoding="UTF-8"?>
<svg id="curvas" xmlns="http://www.w3.org/2000/svg" viewBox="0 0 1012.83 967.1">
  <defs>
    <style>
      .cls-1 {
        fill: #b2f7ef;
      }
    </style>
  </defs>
  <path d="M205.46,535.56c-5.72-6.85-18.16-23.53-19.63-32.05-.87-5.05.5-10.24-1.56-15.27l-8.69,4.98-1.09-4.82,2.87-1.36-.55-2.53,13.7,2.48c.02-5.1-4.9-7.8-5.08-13.11s4.08-6.29,3.59-12.05c-.66-7.77-9.96-26.46-9.67-31.56.16-2.74,3.71-3.6,3.51-5.94l-4.43-5.68-6.21,2.2c-1.15.35-1.59-.35-2.25-1.09-2.84-3.18-14.25-34.49-13.08-36.11l11.2-.02,2.48-57.3,5.01.02-.02-5c5.71,1.08,5.35-1.49,7.17-5.9,6.37-15.44,5.24-32.38,9.23-44.37.55-1.65,2.95-1.75,3.6-2.9,5-8.93,11.15-28.81,16.52-36.1.66-.9,12.09-10.04,12.91-10.14,1.29-.17,4.16,2.68,6.71,1.72l3.02,3.05c2.7-3.19,2.86-7.26,5.18-10.89,2.11-3.3,5.83-2.89,4.31-10.14l14.82-6.37-3.76-5.58.03-3.11c5.4.64,4.53-6.56,11.18-8.1l-6.93-9.29c2.93-8.58,6.23-2.27,11.27-2.43,10.86-.33,9.61-7.47,14.94-12.62,2.42-2.34,8.79-4.74,9.11-5.21,2.89-4.19-1.37-10.21,11.49-8.45l-4.95-5.55c5.05-2.24,21.27-27.66,23.04-28.05,2.84-.62,4.83,5.3,4.14,7.8-1.43,5.26-26.41,16.09.75,15.94l1.3-3.82,2.58,3.82c2.8.2,33-18.81,40.38-20.74,3.69-.96,4.71.74,6.75.73.7,0,.57-2.12,2.42-2.72,5.5-1.76,10.78-1.97,16.59-4.54,4.79-2.12,9.47-10.11,9.73-.23,4.3-7.67,14.12-7.5,19.78-11.36,6.67-4.55-3.78-5.2-7.93-3.58-2.56-10.54,2.66-33.65,16.81-23.66,11,7.76,3.94,16.45-3.11,23.65,57.34-14.99,118.13-19.6,176.87-9.95l-.09,3.63-6.14,1.33,2.49-3.71-9.28-.1-.79,3.64-32.28,7.66v-5s-7.81.29-7.81.29l-20.82,12.16c11.73.81,27.15-5.08,37.32,3.16,3.48,2.82,1.85,5.79,8.07,5.63,3.65-.09,8.36-1.89,9.42-5.69.21-.77-3.56,0-2.49-2.45.97-1.99,10.2-2.98,13.02-3.18,16.29-1.18,33.38.44,49.23-3.7-.4,6.49,8.75,5.53,12,11.15l5.45-2.41,1.17,5.69c12.13,1.85,24.62,6.44,35.83,11.5,3.45,1.56,4.92,6.06,5.96-.98,7.75,2.51,17.94,2.62,23.07,9.93l-4.97,2.48c1.96-.39,7.67,4.71,6.21,6.25-2.27-1.11-4.08-2.55-6.82-2.53-4.05.02.74,5.16-5.62,3.78v-3.74s-14.95,1.26-14.95,1.26c3.63,7.08,6.47,3.96,12.45,2.48l-2.47,7.47,11.19-1.24c1.04,2.35-4,3.95-1.26,5.62,5.61,3.41,24.07,2.41,32.08,5.29,9.84,3.53,33.36,19.01,43.06,25.44,3.17,2.1,16.33,13.57,18.31,12.21l-.63-2.49,4.33,1.87c-2.98,4.99-9.22,2.56-7.45,9.35-2.9,4.05-3.44-8.3-3.81-8.64l-4.89-.08c-.61,3.96,2.16,7.95,4.93,10.62,4.85,4.67,19.75,8.14,14.37,15.52-2.5-7.23-3.47-3.72-8.13-5.55-12.05-4.74-25.98-17.77-36.43-20.88-5.77-1.72-14.71.92-14.62-7.21l-5.39,1.36c-2.44-4.39-4.11-5.88-9.53-5.08l3.73,2.5c-1.25,3.84-4.64,1.77-7.5.6l-.52-5.63-14.99-2.52c-1.34.26.15,2.95-1.46,3.87-6.81,3.88-25.54-1.26-34.58.06-17.82,2.6,7.07,16.76,13.3,18.84,2.43.81,7.88.87,8.2,1.16.39.35.18,2.7,1.44,4.1,1.13,1.26,3.49,1.99,5.02,3.74,3.23,3.72,5.88,9.95,10.02,12.39,7.32,4.32,7.91-1.71,9.23-1.73.4,0,4.05,4.09,5.99,5.2,3.18,1.83,12.24,4.4,13.34,5.38,3.31,2.95-1.51,1.55,6.17,4.95,14.63,6.47,24.56,19.29,39.91,26.15,4.32,1.93,9.95,2.65,14,4.68,5.21,2.61,9.46,8.36,14.69,11.46,1.9,1.13,5.81,1.83,6.01,2.08.4.48.94,9.14,2.04,12.28.93,2.65,15.76,22.73,17.04,23.43,2.81,1.54,10.59-1.7,9.72,6.49l-4.98,1.23,7.46,2.51c-1.58-7.74,7.61-1.46,9.05,1.54,2.44,5.07-.04,7.95-5.31,8.41l.58-2.48-4.31-1.24,1.25,6.21c-.82.87-10.95-.06-9.96,4.98l8.17,1.18c0,10.31,2.84,10.97,8.9,16.72.53.5.13,2.4.64,2.93,1.57,1.62,7.04-.11,5.95,4.09-12.66-1.76-17.68-16.04-24.39-24.79-11.68-15.21-24.64-31.74-39.1-44.34-3.23-2.81-10.47-6.06-12.51-8.66-1.58-2.01-1.47-4.93-3.11-6.86-2.73-3.23-11.4-5.25-15.51-6.31.79-1.58,1.38-2.72.13-4.35-2.04-2.68-18.63-11.23-20.01-4.85l7.38,18.62c.73,2.57-1.33,2.03-2.85,1.61-12.47-3.49-24.28-18.37-35.84-25.19-4.38-2.58-9.84-3.97-13.55-6.38-10-6.53-21.8-24.69-35.6-17.05-1.91-.29-3.52-6.29-4.62-6.91-1.74-.98-4.27-2.25-6.05-3.2-4.13-2.2-7.33-4.18-12.33-3.29v-4.99c-5.34,2.68-9.99-4.84-11.85-4.99-.61-.05-.42,2.24-1.42,2.49-8.75,2.2-14.55-5.04-22.33-6.11-2.58-.35-16.24-2.34-17.11-2.3-2.43.11-5.38,2.86-8.31,2.18,5.57-9.79-12.37-10.21-18.57-13.8-1.02-3.38,1.7-6.49,1.99-9.4.85-8.83-15.82-11.82-22.7-10.46l-28.64,2.37-1.66-2.74,2.31-7.05c-8.57.58-30.81,6.53-37.8,2.54-1.6-.91-.12-3.61-1.46-3.87-6.19-.68-18.51,5.34-23.68,4.57-2-.3-3.06-4.27-6.11-4.43-10.2-.54-42.2,22.07-41.69,35.28.54,1.47,1.62,1.87,3.06,2.08,4.61.68,32.6-9.9,38.42-12.66,12.8-6.07,25.89-21.59,20.71,7.62,4.84-.51,9.78-3.52,12.45,2.48-6.08,1.48-11.42.84-15.74,6.15-2.41.43-4.12-4.27-6.02-4.47-2.3-.24-8.47,3.79-11.74,3.43l-.16,6.08c-6.65-.95-8.82,4.36-13.25,7.3-14.79,9.81-26.45,13.93-41.56,21.96-9.18,4.87-23.88,16.48-32.98,19.34-.64.2-2.03.34-1.84-.6,7.67-9.36,19.16-14.05,28.53-21.29,5.05-3.9,14.07-9.61,13.19-16.7-5.87,1.7-5.14,5.31-8.9,8.56-3.48-.89-6.61-3.87-10.36-1.68l-51.73,42.94c-3.25,4.38-7.05,8.93-11.2,12.46-3.41,2.89-6.97,1.06-5.62,7.47-.79.9-9.04-3.78-9.96,1.22l3.73,3.74c-2.71,1.03-8.2-2.05-8.62-4.52-.49-2.89,3.97-3.43,4.59-4.49.25-.42,1.63-8.24,1.61-9.12-.11-4.55-3.43-4.55-4.47-6.82-1.58-3.44,3.89-12.99,5.9-16.53,7.14-12.6,18.71-23.71,25.43-36.95,1.07-2.94-.81-7.74-4.49-7.5l-.13,4.85-8.54,1.42-.11,6.13c-9.39-2.94-8.1,10.44-10.07,12.35-.44.42-3.24.12-4.71.85-6.4,3.16-11.34,10.24-15.05,16.13h4.97c-5.84,5.49-13.03,8.92-13.68,18.05l4.99-6.22c2.31-.29.99,2.54.68,3.79-2.3,9.38-7.34,20.15-13.79,27.33l-3.08-1.93,1.23-4.3,3.72,1.25c.16-4.48-1.33-12.34,4.99-11.21l-2.51-7.46c-8.11,1.31-5.15,4.99-6.76,10.04-1.22,3.85-5.44,6.26-9.42,6.16l1.24,7.46-6.2-3.74c-.72,11.02-3.21,21.7-10,30.55l3.76,13.03h-6.23s-1.25,16.2-1.25,16.2c-7-1.4-7.97-8.71-7.6-14.81l-7.33-2.62c4.55,9.3-6.81,14.94-7.45,23.2-.7,8.92,8.14,3.59,6.18,11.68h-6.22s2.5,11.21,2.5,11.21c5.24,4.29,8.04-18.74,15.01-14.22,1.61,6.52,3.18,12.62,1.15,19.2-4.36,1.21-6.27-7.17-9.82-4.84-.69.45-3.23,9.04-3.55,10.77-3.53,18.71.35,43.71,4.24,62.38,1.83,8.78,6.57,17.09,5.4,26.34-2.45.48-2.97-1.14-3.98-2.86-12.36-21.1-19.1-43.45-27.13-66.28-1.28-3.63-8.43-17.54-8.49-18.86-.02-.46,2.26-6.14,2.53-6.36,3-2.47,6.29,2.35,9.38-7.43,1.9-6.02,2.95-12.64-1.56-17.74-5.89,8.61-13.67-7.48-17.84-.42-4.51,7.63,3.67,21.48,4.62,29.8,1.19,10.43-.47,26.22,1.4,35.96.61,3.17,4.17,4.46,5.38,8.32,2.29,7.33-2.1,15.57,4.54,20.35l-3.7,3.74,13.6,10.7-2.34,9.08,4.73,2.17c-1.67,11.5,8.5,15.49,13.67,23.09,7.33,10.78,7.17,30.21,22.49,32.93l.13,7.35,7.35.13c-.74,6.07,6.51,8.83,8.17,12.37,1.45,3.09.48,5.34,3.16,9.29,5.56,8.19,21.55,14.75,30.31,19.5,1.31.71,3.66,3.49,3.94,3.51,4.35.31-3.76-8.16-1.88-9.93h4.98s-2.48-4.37-2.48-4.37c-.18-.94,1.18-.78,1.88-.64,3.22.64,12.69,12.13,18.45,15.18,8.77,4.65,19.73,5.94,29.18,8.78l1.2,2.87-3.39,4.32,3.75.02-1.25,4.97c2.7.37,4.14-2.34,6.82-2.37,2.41-.02,8.23,2.64,11.61,3.26,13.83,2.53,31.83,6.59,44.77.68,3.11-1.42,4.79-5.42,8.69-6.29,5.97-1.33,8.26,2.65,13.08,2.03,9.34-1.21,19.75-10.42,28.59-12.63,3.65-.91,7.35-.29,10.12-1.09,4-1.16,2.92-6.69,5.27-9.67.58-.74,14.65-10.35,15.53-10.67,1.2-.43,7.59,5.68,12.24.46l-1.67-17.24,2.73-2.33,5.17.94c1-4.85,4.87-3.64,8.91-3.62l-2.48-4.96h4.98c.84-.81-4.47-9.35.01-13.7,3.1-3.01,1.7,4.54,3.7,3.73.09-2.52-.35-7.16,1.14-9.16,1.03-1.38,4.14-.52,4.95-2.8s-.2-6.65.29-9.68c.63-3.85,2.33-14.4,3.56-17.33.68-1.63,4.03-.74,4.99-2.74-4.73-3.61-.96-5.18,0-9.3-9.56-3.47.71-6.89,1.34-11.79,3.19-24.51-22.75-53.03-41.51-65.75-19.47-13.2-37.43-18.97-60.68-10.91l16.18,3.71-27.88,2.42c-1.4,8.93-8.58,4.09-11.39,6.17-2.64,1.95-2.34,6.24-3.39,7.3-.69.69-2.95.57-4.02,1.53-13.29,11.94-15.05,48-1.92,60.48,4.88,4.64,17.62,9.61,21.33,1.3,3.95-8.84-10.31-11.23-3.31-20.73,4.37-5.93,13.25-9.01,19.41-4.29,16.95,12.99,2.33,41.53-13.72,48.59-32.79,14.42-55-22.53-59.65-49.95-1.98-11.69,1.12-24.94-6.37-34.7,11.8-6.46,8.26-8.13,10.04-18.64,1.19-7.04,8.04-11.19,12.18-16.46,3.01-3.83,4.14-4.78,6.5-7.45.88-1,3.33-7.66,3.69-7.91l4.94,2.48,1.43-6.06c13.21,2.79,18.52-17.04,30.37-8.99l3.87-6.04,12.28,2.42-.61-3.74,18.67,1.24.07-3.61,9.89-2-1.89-3.08c8.88,2.77,19.93,8.41,28.99,9.61,4.38.58,9.25-.75,12.39.04,4.74,1.19,12.6,8.44,17.39,11.32,1.59.95,4.61,1.1,5.18,1.74,1.31,1.49-2.11,4.79,6.46,3.41v4.99s4.96-2.5,4.96-2.5c-.71,6.02,3.87,4.08,6.92,6.18,3.5,2.41,6.81,7.87,10.61,10.56,6.95,4.93,13.67,4.82,18.87,13.52,1.3,2.17,11.36,22.01,11.71,23.27.79,2.92-1.9,4.24-1.46,6.36,1.06,5.15,13.85,19.08,16.6,29.47,2.44,9.23,3.09,9.1,7.17,17.73,4.68,9.89,11.62,22.71,8.06,33.64,7.03-1.3,7.72,5.94,9.34,11.22,6.5,21.15,9.03,58.28,6.83,80.31-.4,4.01-.88,10.57-6.2,9.36-2.42-17.23.88-39.91-13.69-52.31-1.83,4.66,5.57,10.8,4.79,14.01-.38,1.56-3.92,6.15-5.03,8.81-1.8,4.32-3.16,8.91-4.78,13.29-3.82,3.66-1.17-10.79-6.2-8.71-1.74,7.19,4.4,9.31,6.21,14.93l-7.47,1.9,2.49,6.82c-4.97-1.01-4.95,3.44-4.97,7.48l3.72-1.23c-8.16,8.01-1.77,13.94-1.5,23.04.13,4.33-2.1,10.61-.99,15.56-6.04,2.63-10.25-14.96-13.68-12.45l-13.71,21.17c.48-9.26.22-20.14,1.25-29.25.78-6.87,6.32-25.75,4.3-30.49-.45-1.06-2.41-1.89-2.88-3.43-1.11-3.66,6.76-22.77,8.15-28.74,9.51-40.79,4.08-90.99-15.61-128.12-4.7-8.87-21.63-36.19-30.16-39.59-1.95-.78-5.8-.48-6.09-.76-.32-.31.05-3.3-.73-4.83-2.41-4.68-20.14-16.89-25.45-19.42-9.21-4.38-18.42-6.55-28.69-5.55-.75,3.19,2.77,2.92,3.81,4.59.91,1.47.86,4.86,1.29,5.25.92.81,6.71-.51,9.09.29,3.14,1.06-.56,6.11,8.2,1.08.59,4.58,5.21,5.76,8.11,8.74,2.77,2.85,1.18,6.62,9.23,6.31l.12,6.12c8.31-1.6,11.63,7.74,17.52,11.74,2.3,1.56,7.96,3.08,8.35,3.48s2.14,7.45,3.35,9.73c3.16,5.97,8.04,11.36,11.28,17.37s10.98,23.05,11.8,29.32c.58,4.47-6.76-.6-9.15-.36-1.43.14-4.27,2.54-4.53,2.2v-6.22c1.08-1.22,8.84,4.78,7.44.64-.95-2.8-11.37-13.76-13.68-11.84l4.98,6.85-3.75,1.26c1.79,3.71.48,9.09,1.23,12.2.34,1.39,3.3,1.33,3.62,2.79.29,1.3-1.56,3.56-.94,5.89.55,2.06,6.83,6.63,7.13,9.21.17,1.48-1.84,2.6-1.85,3.5,0,.8,1.83,2.04,1.83,3.7-.02,6.85-2.82,12.94-2.27,19.96.76,9.77,10.81,18.97,3.74,26.78-2.17-6.18-5.19-14.9-12.47-16.18l2.5,4.31c-7.82,3.17-4.79,11.42-9.96,15.6l-1.87-7.46c-1.68,4.01-9.2,8.85-10.07,12.39-2.26,9.18,10.75,31.37-11.73,31.19.38-3.36,3.13-7.21-.63-9.93-2.44.01-1.82,15.3-6.84,16.17l2.47-11.21c-11.13,10.86-25.24,25.11-27.56,40.93l-7.29,1.41-.62-6.22c-2.94.76-4.21,6.98-4.55,7.27-.88.73-4.03-.34-6.04.81-1.89,1.08-4.22,8.11-8.6,8.27l1.12,4.82h-20.55c-2.72,0-13.2,10.57-19.21,7.64l-.25,3.34c-10.58-.92-20.29,11.47-27.89,13.92-.63.2-2.03.34-1.84-.6l11.2-13.07c-10.14-2.65-22.1,6.86-30.68,7.45-4.53.31-6.21-3.62-10.77-2.27-2.49.74-12.04,9.93-8.38,13.49l-22.41-11.19,13.69-7.5c-.52-3.08-7.33,1.31-8.7,0l1.25-4.98,9.15,2.6c3.31-6.57,14.09-3.04,20.73-6.34.46-.61-1.14-1.92-2.15-2.2-8.78-2.44-21.38-1.25-30.56-3.06-18.83-3.71-37.76-17.59-58.2-17.14l6.82,8.73c7.68,10.27,23.2,12.95,35.47,15.59,5.28,1.13,10.8,1.97,16.23,1.83,1.4,1.13-6.71,10.02-9.33,8.72l-.65-3.72c-15.19,2.62-43.21-1.42-55.4-11.24-2.18-1.76-4.79-6.43-5.54-6.86-1.31-.74-5.39,1.71-7.37.46-.29-.18-1.39-4.14-3.27-6.06-3.07-3.13-10.05-6.11-14.32-7.48l1.92-4.99-11.88-6.22c-.4-3.01,0-1.97,1.72-2.61,5.73-2.14,12.24-.71,18.2-1.11l-1.23-6.21c.62-.62,7.21,3.53,8.61-.78l-1.7-5.58c-2.45-2.78-5.39,1.77-7.42,1.29-9.3-10.73-26.66-29.29-41.87-22.87-3.63-5.52-6.65-13.76-11.87-18.08-3.13-2.59-10.21-2.89-12.67-5.39-1.47-1.49-1.75-5.4-3.48-7.11-1.83-1.8-4.58-1.41-6.48-2.88-1.27-.98-9.66-11.07-11.55-13.34.58,1.6-.77,6.38.16,7.38.38.41,2.74-.46,3.69.83,1.31,1.79,2.99,8.75,5.07,12.13,2.01,3.28,6.05,6.99,8.51,10.17l-14.85-2.04c.74-5.1-3.11-3.34-6.62-5.14-17.61-9.03-37.47-31.65-45.78-49.49l5.59,1.25c7.34,10.41,16.61,29.37,27.84,35.68,4.2,2.36,10.02,1.26,8.93,6.65,7.51-2.8-4.14-12.17-2.5-13.69l6.88.05.59-5.03c.08-.11,2.43,1.11,2.48,1.25ZM561.57,113.32c.79-2.82,2.62-5.32-.56-7.44-3.99,1.05-8.64,4.14-8.06,8.72,3.56-1.02,4.55-2.65,8.62-1.28ZM612.73,130.81c-3.71.46-5.97-3.47-9.27-3.6-2.47-.1-17.05,1.72-19.77,2.37-.62.15-2.72,5.41-7.73,1.24l-.6,2.46c9.42,1.95,19.62,3.55,29.3,2.54,1.42-.15,10.6-2.55,8.06-5ZM628.3,137.02c5.8.51,12.71,0,18.68,0,2.26,0,2.97-6.53-1.23-6.23-2.55,6.17-4.08,1.79-9.97,1.25-5.65-.52-11.31.13-16.82,1.26-1.97,1.86.16,2.21,1.88,2.45,2.4.33,5.78,1.13,7.46,1.28ZM490.67,160.7c-5.98.31-3.65,8.04.61,9.63l5.59-4.04-7.44-.63,1.24-4.96ZM724.81,178.14c-8.67-2.99-13.72-13.1-23.36-14.72-5.86-.99-16.28,4.73-12.55,10.78,2.27,3.68,29.75,7.24,35.29,6.42l.62-2.47ZM315.07,229.17c6.79,2.54,13.87-2.4,12.44-9.95-2.68.64-2.08,3.96-3.73,5.59-2.2,2.17-7.46,1.47-8.7,4.36ZM297.12,230.48l-5.52,15.3c7.73,18.82,19.86,5.57,20.88-8.34l-15.36-6.96ZM234.1,280.24c2.04-1.78-11.62-12.79-14.93-4.35l4.91.74.74,3.7,9.28-.09ZM270.2,307.65l-2.48,1.85-1.23,10.6c5.32.37,5.66-10.56,3.71-12.44Z"/>
  <path d="M878.03,387.35l6.21-2.48c-.89,7.78,2.86,10.41,9.96,7.44l-1.25-5.55c2.41-2.43,4.63,3.24,4.7,5.19.12,3.82-5.38,6.6,1.54,11l-2.56,2.5c2.39,9.17,8.92,11.77,17.34,8.18.56,4.23,6.9,6.92,8.23,9.89,2.03,4.53,1.78,14,3.75,19.91,4.94,14.79,34.15,30.73,35.39,35.74.38,1.52-4.62,11.25-2.36,15.31l-4.15-.03c-3.29,3.55,1.41,3.84,2.88,5.59,5.81,6.92,7.38,14.55,12.47,21.82-2.48.23-4.55-1.52-6.22-3.11-8.09-7.66-14.36-21.59-22.39-29.92-1.6-1.66-4.92-6.27-6.92-3.12-.14,28.26-3.71,56.14-6.76,84.16-.23,2.13.24,4.11-1.92,5.55-6.89-14.34-4.15-31.06-7.18-46.36-.76-3.84-5.42-14.21-5.42-15.28,0-2.17,4.16-11.19,4.49-16.21.76-11.57-4.04-36.71-8.32-47.68-1.66-4.26-5.76-8.14-6.37-12.42-.58-4.1,1.47-7.45,1-11.5-2,.07-5.09,6.74-6.86,3.76l-3.11-17.45-3.09,4.97c-9.23-9.8-19.54-22.92-14.31-37.35l1.24,7.46Z"/>
  <path d="M225.39,168.15l51.69-34.86c.94-.2.79,1.2.6,1.84-1.5,4.86-17.92,18.4-22.37,23.72-2.08,2.49-3.23,6.77-4.1,7.72-.6.66-9,3.81-12.02,6.05-7.53,5.59-16.36,16.74-21.34,24.75-2.51,4.03-1.72,10.58-8.66,10.66l.92,2.49,2.8,1.84c-1.54,2.39-6.39,5.34-7.45,7.51-1.88,3.86,4.16-1.56,3.73,2.46-.26,2.48-8.38,24.92-12.46,20.56l.98-3.55-2.27-.81,2.53-6.19c-2.2-3.74-4.77-.05-7.47-1.26.84-3.95,5.56-3.98,6.83-5.69.71-.96.36-2.83.82-3.44.21-.28,3.47,2.21,4.29-3.93.71-5.28-4.75-5.62-4.42-11.66.48-8.69,5.55-9.13,9.2-14.61,6.45-9.69,3.38-34.52,4.59-35.9.43-.49,10.79-4.62,12.31-2.62l1.91-9.94,5.56-9.99-6.21,34.86ZM215.4,169.4c1.13-5.59,6.42-8.6,4.99-14.94-4.59,2.45-5.07,8.96-7.27,13.29l2.28,1.65Z"/>
  <path d="M569.14,691.23l4.98,2.49c-2.96-.56-6.64,3.3-8.33,3.56-2.05.31-2.92-2.99-5.36-2.29l-.06,4.93c-1.24.22-2.89-.15-3.97.32-4.23,1.82-11.68,18.2-16.34,22.95-5.76,5.86-27.68,17.75-30.09,21.61s1.41,5.9,3.13,8.71l-8.07-1.23-.71,3.64c-5.11-.61-9.48,5.27-13.74.82l-1.07-5.64c12.1-2.41,19.57-15.32,28.57-23.12,9.56-8.28,20.95-14.71,30.5-23.06,14.47-12.66,25.31-27.82,36.16-43.55-.17,10.73-7.39,22.99-15.57,29.87Z"/>
  <path class="cls-1" d="M200.17,740.09c11.63-3,22.84,10.48,15.25,21.51-10.09,14.66-28.75,6.96-26.09-9.89.64-4.09,6.97-10.63,10.84-11.63Z"/>
  <path d="M141.58,423.64c4.12-1.06,11.59,6.03,13.86,9.38,13.21,19.45-10.98,29.01-20.29,14.06-4.1-6.59-1.01-21.53,6.43-23.44Z"/>
  <path d="M913.01,362.33l4.86.13-3.74,5.58c.3,1.1,3.02,1.37,3.48,2.14,2.28,3.84-3.31,5.59,8.85,4.86l2.64,7.32-3.74.63c1.22,2.64,5.76,6.22,4.36,9.34-6.99-2.67-5.82-12.74-7.4-15.02-.89-1.27-6.68-1.44-9.44-4.61-2.97-3.41-3.43-10.93-3.86-11.36-.39-.39-4.43-.19-6.58-1.51-4.32-2.66-7.53-12.78-16.93-8.6,1.46-4.77.09-16.63,6.88-16.11,5.56.84,4.76,6.8,7.33,10,3.91,4.86,14.16,6.07,13.3,17.21Z"/>
  <path d="M687.78,861.55c-7.3-7.8,8.57-27.54,17.68-13.33s-10.34,21.18-17.68,13.33Z"/>
  <path d="M570.03,730.07c12.4-3.72,19.16,26.07-2.17,20.36-12.58-3.37-4.73-18.29,2.17-20.36Z"/>
  <path d="M140.4,154.68c2.73-.67,6.81,1.19,8.95,2.94,10.62,8.71-6.55,25.21-15.44,14.2-5.47-6.78-.95-15.32,6.48-17.14Z"/>
  <path d="M494.4,662.6c2.19,1.88-1.7,2.73-2.35,3.21-17.67,13-41.02,25.64-63.65,20.44,4.91-5.6,13.45-7.38,20.56-7.55,2.56-.06,5.09,1.43,7.39,1.29,4.04-.25,10.03-5.47,15.56-3.82l.08-3.61,3.72,1.25v-4.99c4.43,3.19,17.87-6.91,18.69-6.21Z"/>
  <path class="cls-1" d="M828.48,630.48c11.42-11.82,29.04,7.08,12.89,14.79-8.52,4.07-14.64-7.12-12.89-14.79Z"/>
  <path class="cls-1" d="M312.21,451.09c10.95-3.26,16.17,18.42,1.73,19.09-11.5.54-10.78-16.4-1.73-19.09Z"/>
  <path d="M351.99,313.06c10.58,10.36-3.71,20.95-11.98,13.85-6.1-5.24-.61-14.73,5.85-16.61,2.08-.29,4.72,1.38,6.13,2.77Z"/>
  <path d="M520.56,63.55c.22,1.86-3.34,1.84-4.72,2.11-5.5,1.06-44.73,5.78-46.34,4.1-.75-7.59,10.46-5.66,15.43-6.37,3.29-.47,7.27-2.1,10.31-2.25,7.51-.38,17.54,2.4,25.33,2.41Z"/>
  <path d="M592.81,701.2c-1.69-1.51,20.46-36.39,22.4-34.86,1.84,7.16-2.25,13.93-5.69,19.83-1.82,3.11-12.42,18.87-16.71,15.04Z"/>
  <path d="M328.46,319.16c6.69,6.87-2.32,27.03-12.74,10.8-3.8-5.92,4.37-11.17,9.64-12.15,1.02.33,2.35.58,3.09,1.35Z"/>
  <path d="M897.94,326.32c-2.98,2.53-26.43-20.28-29.29-23.63-1-1.18-6.5-7.83-5.58-8.73,2.35-.14,4.27,1.92,6.1,3.23,10.65,7.61,21.76,18.04,28.77,29.13Z"/>
  <path class="cls-1" d="M387.58,729.57c-6.93-7.16,3.1-21.17,10.92-12.78,8.25,8.86-4.37,19.54-10.92,12.78Z"/>
  <path d="M303.86,655.12c4.01,21.63-16.32,18.93-14.8.17,4.85-2.81,9.55.54,14.8-.17Z"/>
  <path class="cls-1" d="M152.2,271.23c-5.22-5.22,1.91-18.27,10.38-12.24,9.12,6.5-3.52,19.1-10.38,12.24Z"/>
  <path d="M420.55,541.99c10.38-3.14,11.89,13.54,4.48,15.78-9.96,3.01-11.93-13.53-4.48-15.78Z"/>
  <path d="M435.56,856.58c-6.56,6.41-18.07-5.28-10.9-11.52,7.64-6.64,16.21,6.33,10.9,11.52Z"/>
  <path class="cls-1" d="M712.68,406.95c-1.54-1.45-3.67-7.46-2.23-9.63,7.43-8.36,16.09,3.13,11.33,10.03-1.49,2.16-7.36,1.23-9.1-.4Z"/>
  <path d="M594.05,191.83c4.12,3.85-10.6,2-11.2,2.48-1.28,4.4,8.95,4.06,9.81,5.11l.14,4.84c-5.09.99-8.04-4.9-11.85-6.2-2.18-.75-2.13.49-.86,1.87l-2.23.61c.22-3.17.31-6.13-2.49-8.11,6.39-5.25,11.65-1.59,18.68-.6Z"/>
  <path d="M463.28,773.45v3.72c-7.54-1.21-12.78,5.23-19.93,4.97,2.28-8.58,11.98-11.34,19.93-8.7Z"/>
  <path d="M487.99,758.69c.51.82.51,5.07.01,5.86l-18.5,5.14,10.05-8.02,2.6-4.26c1.03-.59,5.46.66,5.84,1.27Z"/>
  <path d="M841.9,205.51l-8.69.64c3.03,4.18,12.49,3.36,11.18,9.33-7.09-.08-11.82-4.35-16.16-9.34l5.78-5.7c2.51-.42,6.98,2.56,7.9,5.06Z"/>
  <path d="M556.66,747.29l3.7,13.18-3.09,3.1-6.81-4.47,4.97-1.86-3.42-4.31c2.21-1.76,1.02-6.56,4.65-5.63Z"/>
  <path d="M251.64,712.51c2.55-4.32,15.9,4.64,7.97,11.11-4.42-.4-10.45-6.91-7.97-11.11Z"/>
  <path d="M743.5,472.05l1.43-9.79c8.4-1.81,11.25,2.54,6.07,9.17l-7.49.61Z"/>
  <path class="cls-1" d="M588,794.43c-4.36-2.74,1.61-17.85,6.99-7.62,3.83,7.29-2.57,10.41-6.99,7.62Z"/>
  <path d="M607.99,898.22c4.91-2.94,15.3,7.53,5.05,9.53-6.67,1.3-9.15-7.08-5.05-9.53Z"/>
  <path d="M701.27,559.35c5.76-3.82,10.2,8.59,4.15,12.29l-3.74-1.1c-2.82-1.38-1.74-10.31-.4-11.19Z"/>
  <path class="cls-1" d="M45.85,536.99v7.1c-12.77,5.89-14.23-13.5,0-7.1Z"/>
  <path d="M779.21,720.06c4.28-1.44,8.41,1.62,8.58,6.08-5.61,6.15-16.89.61-8.58-6.08Z"/>
  <path d="M779.28,809.88c.76.62.99,2.07,1.4,3,.14,4.38-8.19,4.9-10.85,2.73l.99-6.78c1.5-1.06,7.22.03,8.46,1.04Z"/>
  <path d="M58.11,412.4c6.44-1.59,6.26,9.36,1.01,9.91-6.47.68-5.33-8.85-1.01-9.91Z"/>
  <path d="M722.34,574.17c6.34.13,8.66,6.7,4.3,11.2l-4.41-1.75c-2.38-3.05-.64-6.14.11-9.44Z"/>
  <path d="M843.14,227.93l-8.54-1.41-.17-8.54c6.09-.05,6.48,5.81,8.71,9.94Z"/>
  <path d="M896.67,354.98l2.51,14.94c-5-2.77-6.42-9.62-6.21-14.95h3.7Z"/>
  <path d="M422.17,336.31c-2.49,8.56-13.09,8.81-8.55-1.1l8.55,1.1Z"/>
  <path class="cls-1" d="M336.24,72.25c-.8-7.38,4.82-9.83,9.93-4.35-2.7,3.56-5.3,5.12-9.93,4.35Z"/>
  <path d="M830.69,174.39c3.67-.46,8.3.07,8.74,4.4.89,8.65-9.8,1-8.74-4.4Z"/>
  <path d="M551.7,201.8c-5.62,7.9-10.19,2.66-17.44,2.47,3.4-4.91,12.24-1.53,17.44-2.47Z"/>
  <path d="M738.34,307.84l.19,6.65c-.65,5.23-16.16-11.64-.19-6.65Z"/>
  <path d="M166.85,612.79c2.3-2.3,12.53,7.57,6.82,8.72-3.21.65-7.82-5.27-6.82-8.72Z"/>
  <path d="M572.87,196.81c-1.18,3.11-4.89,3.03-7.4,4.47-2.36,1.36-1.22,5.27-8.78,1.72-.36-3.22,0-1.98,1.81-2.51,4.69-1.38,9.73-2.05,14.37-3.69Z"/>
  <path d="M807.02,519.38c-.11,2.17.93,12.36-1.86,12.42-4.26-1.7-.91-15.85,1.86-12.42Z"/>
  <path d="M533,685.01c-2.43.21-1.06-3.87-.65-5.01,1.12-3.16,4.11-7.87,6.88-9.92.43,5.95-4.61,9.71-6.23,14.94Z"/>
</svg>