<?xml version="1.0" encoding="UTF-8"?>
<svg id="curvas" xmlns="http://www.w3.org/2000/svg" viewBox="0 0 1012.83 967.1">
  <defs>
    <style>
      .cls-1 {
        fill: #b2f7ef;
      }

      .cls-2 {
        fill: #fff;
      }
    </style>
  </defs>
  <path d="M559.53,342.52l161.22-78.93,3.65,5.5c-27.75,44.77-62.28,86.16-90.89,130.49-1.67,2.59-8.14,9.73-4.07,11.88l273.21,42.94,4.62,6.63-268.71,55.36,113.07,190.72-3.66,5.67-192.95-117.38-33.33,281.65-6.17,5.08-68.92-295.75-156.72,103.77-3.61-5.43c22.74-47.78,49.53-93.91,73.45-141.18,1.7-3.35,10.06-18.2,7.85-20.36l-276.82-22.39-5.44-5.81,284.54-68.91-119.6-228.92,5.57-3.69,3.37,1.21,185.16,145.62L508.71,62.58l6.75,2.25,44.07,277.69ZM496.26,351.56l4.55-219-51.19,230.48-12.05,4.3,1.96-11.89-139.69-112.27,112.56,143.92c1.76,2.94-3.78,10.56-6.47,8.54l-110.61-136.66,85.94,162.46,11.13-2.15-3.37,11.29-222.43,54.16,216.83-12.45c4.85,3.33,1.99,10.15-3.45,10.2-64.64,4.31-129.63,6.31-194.21,11.29-2.62.2-10.13.7-10.14,4.5l219.04,16.95,4.5,10.15-19.21,2.24-62.05,119.69,94.84-100.6c4.01-2.55,10.55,3.78,8.01,8.01l-84.79,92.59,105.66-72.7.46-8.58c1.15-1.34,7.7,2.21,8.93,3.48,4.32,4.49,10.45,37.36,12.54,46.16,14.44,60.6,27.48,121.76,39.51,182.9l2.33-23.79-11.37-195.21,8.87.17,15.94,225.6,27.47-236.71,10.92-4.85c.59,6.86-2.33,15.32,3.33,20.4l138.96,85.69-120.89-119.57-.67-4.25,7.4-4.77,129.95,126.36-86.89-144.51c-4.54-6.67-28.39,4.47-30.51,2.27l2.08-9.77,239.53-51.16-228.08,6.74c-.35-5.41-.76-10.78,5.65-11.28l208.87-6.74-224.74-36.09-3.3-11.35,17.6,1.77,70.43-103.37-99.28,84.94c-3.01,1.97-9.42-2.66-8.03-5.92l93.79-83.51-110.28,54.51,1.88,15.43-11.35-3.3-36.09-231.47-9,216.74h-11.32Z"/>
  <path d="M836.66,293.21c7.97-1.2,10.46,6.7,3.71,10.64l-185.91,96.49c-9.82,1.88-8.4-9.2-.87-12.3l183.07-94.83Z"/>
  <path d="M442.06,326.71c-7.54,7.74-15.08-21.48-16.4-25.35-19.98-58.57-35.19-119-54.87-177.7,7.79-17.51,12.76,4.06,15.42,11.69,17.12,49.21,45.3,128.57,54.83,177.73.89,4.58,1.53,8.97,1.02,13.63Z"/>
  <path d="M667.89,805.35c-6.6,6.44-15.79-11.92-18.44-16.53-31.52-54.87-59.69-112.2-89.94-167.65,3.65-21.33,18.66,12.51,22.97,20.12,28.41,50.14,53.42,102.34,82.93,151.89,1.65,2.28,3.68,11.01,2.48,12.17Z"/>
  <path d="M658.95,527.72l8.99,1,183.53,76.18c7.39,3.19,3.93,12.15-3.5,10.44l-190.32-80.85,1.31-6.77Z"/>
  <path d="M439.81,597.64c5.45,5.15-39.85,125.98-42.75,143.51-2.34,8.99-12.46,6.74-11.06-1.83l44.55-140.33,9.25-1.35Z"/>
  <path d="M638.53,213.84c1.2,1.17-.83,9.9-2.48,12.17l-54.25,97.03c-4.59,7.6-13.57,2.92-10.01-5.4,17.16-28.31,30.93-59.14,48.29-87.27,2.77-4.5,11.73-23.07,18.45-16.53Z"/>
  <path d="M348.87,528.01c11.36.76,9.32,7.19.73,12.18-15.15,8.79-81.85,38.51-97.63,42.37-3.3.81-11.93,3.54-13.12-1.88-1.02-4.62,13.39-10.2,17.24-12.07,30.22-14.6,62.62-25.71,92.78-40.6Z"/>
  <path d="M974.62,656.73c1.27,2.17.09,5.96.4,8.64l-11.36-1.05-100.18-42.07c-8.64-6.08-1.1-14.17,7.21-9.51,11.71,7.91,101.09,39.13,103.93,44Z"/>
  <path d="M355.86,410.63c1.27,2.17.09,5.96.4,8.64-3.96.53-7.48-.14-11.31-1.1-14.7-3.68-75.19-29.79-88.61-37.84-2.5-1.5-6.98-3.73-6.2-7.3l7.63-3.37c11.4,6.39,95.41,36.37,98.09,40.97Z"/>
  <path d="M850.83,288.32l.38-8.65c9.07-2.55,16.28-8.57,24.35-12.89,16.84-9,46.57-25.21,63.4-31.43,4.85-1.79,9.72-5.82,13.48-.04l-4.67,8.84c-28.53,10.19-58.23,32.96-86.29,42.42-3.61,1.22-6.69,2.44-10.65,1.75Z"/>
  <path d="M725.72,49.23c4.53-1.42,9.22,2.16,6.69,6.65-14.83,23.6-24.35,55.38-39.23,78.23-5.07,7.78-12.48,11.41-11.73-.25.31-4.76,28-58.77,32.69-66.84,1.99-3.42,9.31-17.09,11.57-17.8Z"/>
  <path d="M204.86,606.55l-86.89,38.67c-9.31-1.2-10.69-4.45-2.67-9.65,11.71-7.6,65.51-33.27,78.3-36.91,7.67-2.18,12.41-1.06,11.25,7.89Z"/>
  <path d="M358.62,818.99c1.92-1.58,12.1-.05,10.85,5.1-11.88,22.25-17.06,63.63-29.5,83.52-4.58,7.32-11.42,4.13-10.43-3.46l29.08-85.16Z"/>
  <path d="M223.02,356.05c-3.34.69-4.75,1.62-8.32.6-6.14-1.76-55.16-26.33-60.27-30.21-7.28-5.54-3.9-12.4,5.41-10.01,4.97,1.27,59,28.84,61.09,31.58s2.62,4.71,2.09,8.05Z"/>
  <path d="M678.1,827.94c4.56-.73,6.36,1.47,8.9,4.61,2.85,3.51,27.53,48.34,27.96,51.22,1.16,7.72-5.58,10.43-10.65,3.71-3.53-4.68-27.61-48.5-28.65-52.68-1.01-4.05-1.03-4.12,2.44-6.86Z"/>
  <path d="M37.86,676.65c.33-3.06-1.44-7.06,1.4-9.23,2.65-2.03,47.18-23.85,49.92-24.26,7.72-1.16,10.42,5.53,3.71,10.64-5.32,4.05-51.73,26.33-55.03,22.85Z"/>
  <path d="M671.32,148.37c6-1.27,6.03,6.9,4.63,11.39-.64,2.05-19.95,35.74-21.51,37.23-2.47,2.35-4.18,4.02-7.95,3.3-3.45-2.73-3.46-2.81-2.44-6.87,1.31-5.2,24.11-44.38,27.28-45.05Z"/>
  <path d="M365.2,53.62c2.05,1.67,9.52,45.48,9.12,51.85l-9.26-1.32c-.96-13.56-10.05-33-10.67-45.47-.28-5.59,8.85-6.66,10.81-5.06Z"/>
  <path d="M387.82,753.49l-12.32,42.89-10.2,2.2c-1.77-1.77,9.57-41.76,11.78-44.64s7.72-1.34,10.73-.45Z"/>
  <path class="cls-2" d="M466.9,457.65c1.89,42.53,63.57,40.73,67.91.17l42.74,7.72c-27.7,47.74-101.33,55.16-142.28,20.36-3.6-3.06-14.37-14.45-15.76-18.12-1.84-4.86,3.17-2.9,5.53-3.41,13.81-2.97,27.98-4.3,41.86-6.73Z"/>
  <path class="cls-2" d="M573.03,453.15c-49.18-14.55-101.65-9.28-151.28-.02,32.47-52.52,109.88-54.98,147.93-6.77,1.79,2.27,4.37,2.9,3.35,6.79Z"/>
  <path class="cls-2" d="M523.36,455.42c1.44,24.83-41.9,30.52-45.18,5.52-.65-4.97,6.27-5.08,9.84-5.34,4.3,1.27,3.06,11.49,16.14,8.92,6.49-1.28,7.48-13.33,19.2-9.09Z"/>
  <circle class="cls-1" cx="498.53" cy="474.13" r="123.22"/>
  <path d="M564.03,496.06c-2.23,7.57,9.55,26.87-1.22,29.3-6.45,1.46-9.02-16.02-10.11-20.27l-15.78,6.8c22.32,37.63,2.05,49.81-9.29,4.75l-14.23,1.74c-5.47,3.8,11.13,41.44-2.41,38.62-8.12-1.69-7.54-30.95-11.23-36.21-2.76-3.94-12.48-1.69-17.05-2.17l-2.17,34.6-7.78,3.66c-12.74-15.73,14.4-43.92-17.1-45.04-3.11,2.29-2.98,30.61-12.44,31.67-12.66,0,.84-27.21,1.12-33.05.4-8.44-9.65-9.74-14.7-14.36-6.85,7.72-4.82,23.01-19.17,20.26-3.74-9.62,9.13-21.36,8.92-28.24-.23-7.49-16.05-16.79-13.07-31.05,1.52-7.27,20.36-29.17,26.69-34.42,33.89-28.14,86.3-28.74,122.73-5.25,10.64,6.86,31.08,28.1,34.4,40.25,4.13,15.09-14.82,24.92-14.31,30.55.21,2.28,14.82,12.69.64,16.88l-12.45-9.01ZM573.03,453.15c1.02-3.89-1.56-4.52-3.35-6.79-38.05-48.21-115.46-45.75-147.93,6.77,49.63-9.26,102.1-14.53,151.28.02ZM523.36,455.42c-11.71-4.24-12.7,7.82-19.2,9.09-13.08,2.57-11.84-7.64-16.14-8.92-3.57.26-10.49.37-9.84,5.34,3.28,25,46.61,19.32,45.18-5.52ZM466.9,457.65c-13.88,2.43-28.05,3.76-41.86,6.73-2.36.51-7.36-1.45-5.53,3.41,1.39,3.68,12.16,15.06,15.76,18.12,40.95,34.8,114.58,27.38,142.28-20.36l-42.74-7.72c-4.34,40.56-66.02,42.36-67.91-.17Z"/>
</svg>